<svg width="283" height="283" viewBox="0 0 283 283" fill="none" xmlns="http://www.w3.org/2000/svg">
<path d="M165.083 106.125C161.742 106.125 158.944 104.993 156.688 102.729C154.432 100.465 153.3 97.6664 153.292 94.3333V47.1667C153.292 43.8257 154.424 41.0271 156.688 38.771C158.952 36.5149 161.75 35.3829 165.083 35.375H235.833C239.174 35.375 241.977 36.507 244.241 38.771C246.505 41.035 247.633 43.8336 247.625 47.1667V94.3333C247.625 97.6743 246.493 100.477 244.229 102.741C241.965 105.005 239.166 106.133 235.833 106.125H165.083ZM47.1667 153.292C43.8257 153.292 41.0271 152.16 38.771 149.896C36.5149 147.632 35.3829 144.833 35.375 141.5V47.1667C35.375 43.8257 36.507 41.0271 38.771 38.771C41.035 36.5149 43.8336 35.3829 47.1667 35.375H117.917C121.258 35.375 124.06 36.507 126.324 38.771C128.588 41.035 129.716 43.8336 129.708 47.1667V141.5C129.708 144.841 128.576 147.643 126.312 149.907C124.048 152.171 121.25 153.3 117.917 153.292H47.1667ZM165.083 247.625C161.742 247.625 158.944 246.493 156.688 244.229C154.432 241.965 153.3 239.166 153.292 235.833V141.5C153.292 138.159 154.424 135.36 156.688 133.104C158.952 130.848 161.75 129.716 165.083 129.708H235.833C239.174 129.708 241.977 130.84 244.241 133.104C246.505 135.368 247.633 138.167 247.625 141.5V235.833C247.625 239.174 246.493 241.977 244.229 244.241C241.965 246.505 239.166 247.633 235.833 247.625H165.083ZM47.1667 247.625C43.8257 247.625 41.0271 246.493 38.771 244.229C36.5149 241.965 35.3829 239.166 35.375 235.833V188.667C35.375 185.326 36.507 182.527 38.771 180.271C41.035 178.015 43.8336 176.883 47.1667 176.875H117.917C121.258 176.875 124.06 178.007 126.324 180.271C128.588 182.535 129.716 185.334 129.708 188.667V235.833C129.708 239.174 128.576 241.977 126.312 244.241C124.048 246.505 121.25 247.633 117.917 247.625H47.1667Z" fill="white"/>
</svg>
