<svg width="85" height="81" viewBox="0 0 85 81" fill="none" xmlns="http://www.w3.org/2000/svg">
<rect width="85" height="81" rx="15" fill="#3D00CA"/>
<path d="M29.1718 61.2239V22.1558" stroke="white" stroke-width="4" stroke-linecap="round" stroke-linejoin="round"/>
<path d="M42.6718 28.1558L29.1718 19.7761L15.6718 28.1558" stroke="white" stroke-width="4" stroke-linecap="round" stroke-linejoin="round"/>
<path d="M66.625 42.4739H49.4219V59.3489C49.4219 59.8802 49.2419 60.3258 48.8819 60.6858C48.5219 61.0458 48.0769 61.2252 47.5469 61.2239C47.0169 61.2227 46.5719 61.0427 46.2119 60.6839C45.8519 60.3252 45.6719 59.8802 45.6719 59.3489V42.4739C45.6719 41.4427 46.0394 40.5602 46.7744 39.8264C47.5094 39.0927 48.3919 38.7252 49.4219 38.7239H66.625L61.2344 33.3333C60.8594 32.9583 60.6644 32.5133 60.6494 31.9983C60.6344 31.4833 60.8137 31.0377 61.1875 30.6614C61.5612 30.2852 62.0069 30.0977 62.5244 30.0989C63.0419 30.1002 63.4869 30.2877 63.8594 30.6614L72.4844 39.2864C72.6719 39.4739 72.805 39.6771 72.8838 39.8958C72.9625 40.1146 73.0013 40.3489 73 40.5989C72.9988 40.8489 72.96 41.0833 72.8838 41.3021C72.8075 41.5208 72.6744 41.7239 72.4844 41.9114L63.8125 50.5833C63.4375 50.9583 63 51.1383 62.5 51.1233C62 51.1083 61.5625 50.9127 61.1875 50.5364C60.8437 50.1614 60.6638 49.7239 60.6475 49.2239C60.6313 48.7239 60.8112 48.2864 61.1875 47.9114L66.625 42.4739Z" fill="white"/>
</svg>
